# xmcd
#
# Track frame offsets: 
#        150
#        40374
#        51370
#        67573
#        93684
#        136349
#        154619
#
# Disc length: 2446 seconds
#
# Revision: 0
# Processed by: cddbd v1.5.2PL0 Copyright (c) Steve Scherf et al.
# Submitted via: ExactAudioCopy v1.0b3
#
DISCID=57098c07
DTITLE=Al Kooper and Shuggie Otis - Al Kooper Session
DYEAR=1969
DGENRE=Blues
TTITLE0=Bury My Body
TTITLE1=Double Or Nothing
TTITLE2=One Room Country Shack
TTITLE3=Lookin' For A Home
TTITLE4=Slow Goonbash Blues
TTITLE5=Shuggie's Old Time Slide Boogie
TTITLE6=Shuggie's Shuffle
EXTD=
EXTT0=
EXTT1=
EXTT2=
EXTT3=
EXTT4=
EXTT5=
EXTT6=
PLAYORDER=
